<svg id="Capa_1" enable-background="new 0 0 150 150" viewBox="0 0 150 150" xmlns="http://www.w3.org/2000/svg"><g><path d="m121.1 57.9-22 16.4v35.8h15.4c3.6 0 6.6-2.9 6.6-6.6z" fill="#4caf50"/><path d="m28.9 57.9 21.9 16.5v35.8h-15.3c-3.6 0-6.6-2.9-6.6-6.6z" fill="#1e88e5"/><path d="m99.1 46.9-24.1 18.1-24.1-18.1v27.4l24.1 18.1 24.1-18.1z" fill="#e53935"/><path d="m28.9 49.3v8.6l21.9 16.5v-27.5l-6.8-5.1c-1.6-1.2-3.6-1.9-5.7-1.9-5.2 0-9.4 4.2-9.4 9.4z" fill="#c62828"/><path d="m121.1 49.3v8.6l-22 16.4v-27.4l6.9-5.1c1.6-1.2 3.6-1.9 5.7-1.9 5.2 0 9.4 4.2 9.4 9.4z" fill="#fbc02d"/></g></svg>